<?xml version="1.0" encoding="UTF-8"?>
<svg id="Layer_2" data-name="Layer 2" xmlns="http://www.w3.org/2000/svg" viewBox="0 0 1387.45 691.69">
  <defs>
    <style>
      .cls-1 {
        fill: #27aae1;
        stroke-width: 0px;
      }
    </style>
  </defs>
  <g id="Layer_1-2" data-name="Layer 1">
    <g>
      <path class="cls-1" d="M131.68,445.85c30.69,17.16,57.76,27.15,76.57,27.15,19.8,0,33.99-13.57,41.58-34.32-.99-63.77-25.74-205.89-75.58-422.8V0l31.02,13.06c23.1,9.73,47.52,14.6,73.27,14.6,9.57,0,21.78-1.02,36.3-3.07l-.66,1.79,15.84,12.04c-5.61,20.23-8.58,47.63-8.58,81.95,0,77.08,12.87,194.37,38.94,351.87-7.26,52.75-19.8,84-37.62,93.73-25.41,21-49.17,32.52-71.29,34.83-8.25.77-16.17,1.02-24.09,1.02-29.37,0-56.44-5.12-81.19-15.62-12.54-5.12-24.09-11.78-34.65-19.97l-16.5-12.8c-21.45-16.65-38.28-39.44-52.48-68.38-9.57-18.44-17.16-39.18-22.77-62.23-4.29-18.69-6.6-35.08-6.6-49.17,0-21.77,4.95-38.93,15.18-51.47l49.83-6.15,59.41,3.33v1.54l15.51,12.04c-2.31,40.46-9.9,77.34-22.11,110.63l.66,2.3ZM341.58,459.42c-26.07-157.49-38.94-274.78-38.94-351.86,0-34.57,2.64-61.21,7.92-79.64-10.89,1.54-21.78,2.3-32.01,2.3-26.4,0-51.16-4.87-74.59-14.85l-26.4-11.27v11.27c50.49,219.47,75.58,360.83,75.58,424.08-6.93,24.07-22.11,36.11-44.88,36.11s-53.8-12.04-92.41-36.11l-3.96-8.71c12.87-34.57,20.13-70.94,22.44-109.09l-55.78-3.07-47.85,5.89c-9.57,12.04-14.19,28.43-14.19,49.17,0,13.83,2.31,29.96,6.6,48.66,19.47,78.11,55.45,127.79,107.59,149.56,24.75,10.24,51.48,15.37,80.2,15.37,7.59,0,15.51-.26,23.76-1.02,22.11-2.3,45.54-13.83,70.3-34.57,17.16-9.48,29.37-40.21,36.63-92.19ZM103.96,559.81l10.56,6.4c-4.62-2.82-9.24-5.89-13.86-9.22l3.3,2.82Z"/>
      <path class="cls-1" d="M588.45,473.51h-35.64l-68.98-25.61-14.52-11.01-2.97-1.28-21.45-92.96-12.54-55.83v.26l-20.13-87.84c-14.19-60.18-28.05-120.11-40.92-178.24V5.12l31.02,13.06c23.43,9.99,47.85,14.85,72.61,14.85,10.56,0,23.1-1.02,37.29-3.33l-.66,1.79,15.84,12.04c-1.98,6.4-2.97,14.85-2.97,25.35,0,43.54,10.23,137.26,30.69,281.44l.66,2.3h32.67v2.56h-45.54l-6.6-17.16c-20.46-144.69-30.69-238.67-30.69-281.95,0-11.01.66-18.69,1.98-23.05-10.23,1.79-21.12,2.56-32.67,2.56-25.74,0-50.5-5.12-73.93-15.11l-26.4-11.27v11.27l61.06,266.08,12.54,55.57,21.12,91.94,67.33,24.84h51.82v14.6Z"/>
      <path class="cls-1" d="M561.05,352.63h21.45l-10.23-20.23-18.48-36.36c74.26-20.23,111.22-33.04,111.22-38.67q-.33,0-.66-.26l-1.98-.77,5.28-4.35c.99,1.54,2.31,2.82,3.3,4.1l12.87,9.99,26.73,32.27v8.96c40.26-46.61,84.82-70.17,133.66-70.68h3.63c32.01,0,63.04,9.22,93.07,27.4l9.57,8.45,6.27,4.87,55.12,48.66c13.86,35.08,20.79,61.97,20.79,80.41,0,4.35-.33,8.71-1.65,13.06l-25.41,54.55-52.81-14.34-123.43-1.54-56.77,2.56-89.11,10.24v2.56h-110.56l-11.88-9.22v-5.38h103.63v-2.3l91.09-10.5,57.1-2.56,124.09,1.54,50.82,13.83,24.75-53.01c.99-3.33,1.32-7.43,1.32-12.29,0-17.93-6.93-44.56-20.79-79.64l-55.12-48.91c-28.05-17.16-58.08-25.87-90.1-25.87h-3.63c-51.49.51-98.68,28.17-141.91,82.97l-24.42,41.23v-2.82c0-7.94.66-21.25,2.31-40.46,7.59-1.54,11.55-3.84,11.55-6.91v-27.15l-26.4-31.76c1.98.77,2.97,1.79,2.97,3.07,0,6.91-36.63,20.49-110.23,40.46l29.7,57.36h-26.73v-2.56ZM893.73,385.16c.33.51.33,1.28.33,2.31,0,5.89-8.91,9.99-26.4,11.78-9.9-2.82-19.47-4.1-29.04-4.1-14.19,0-27.06,3.07-38.94,9.22l-6.6-19.72c7.26-1.54,10.89-9.22,11.22-23.3,5.61-6.92,17.16-11.27,34.32-13.06,10.23,0,21.78,7.68,34.65,22.79l16.5,2.82,3.96,11.27ZM890.1,385.67c-.66,0-1.32,0-1.65-.26l-15.18-11.78c-.99,0-1.32,0-1.65-.26l-8.25-8.45c-2.97-1.02-5.61-1.79-7.92-2.05-16.17,1.79-26.73,5.89-32.34,11.78-.33,9.48-1.32,15.88-4.95,19.97,6.27-1.79,12.87-2.05,20.46-2.05,9.9,0,19.8,1.28,29.7,4.1,14.85-1.79,22.44-4.87,22.44-9.22,0-.51,0-1.02-.33-1.54l-.33-.26Z"/>
      <path class="cls-1" d="M1135.31,440.22l-2.31-.77-41.58-32.27-37.95-43.02c-6.6-9.99-9.9-22.28-9.9-37.39,0-3.84.33-8.19.66-12.04,3.63-17.41,21.78-33.55,54.46-48.66l75.91-25.87c33.99-9.22,64.69-13.83,92.74-13.83s54.46,4.87,77.89,14.34l2.97,3.58,12.54,9.73,26.73,32.52v27.66c0,3.84-3.96,6.66-11.55,8.45-2.31,24.33-3.96,47.63-6.27,71.96-1.65,40.21-2.64,77.34-2.64,106.79,0,30.99.99,56.85,3.3,77.59h-12.54c-34.32-25.35-79.54-44.56-128.05-56.6-1.65,0-2.97-.51-4.29-1.54l-13.86-10.76c-4.62-1.02-7.92-5.63-9.57-13.83l14.52-27.66c0-1.79,0-2.56.33-4.35-8.25.77-16.5.51-24.75,1.28l-42.24-14.08-14.52-11.27ZM1368.64,274.27l-26.4-31.75c-22.11-8.96-47.2-13.57-74.92-13.57s-57.75,4.61-91.42,13.57l-73.27,24.84c-33,15.11-51.49,31.24-55.12,47.89-.33,3.84-.66,7.68-.66,11.52,0,14.6,2.97,26.38,9.24,35.85l37.95,43.02,40.92,31.75,40.92,13.57,46.54-2.3-2.64,20.49-14.52,27.15c1.65,7.68,4.29,11.52,8.58,11.52,51.16,12.04,93.73,30.99,128.38,56.6h8.91c-1.98-18.7-2.97-43.79-2.97-75.8,0-29.96.99-65.56,2.64-106.79l6.27-73.5c7.59-1.54,11.55-3.84,11.55-6.91v-27.15ZM1275.24,384.13c-2.97,4.87-11.55,7.17-26.07,7.17-3.63,0-7.59-.26-11.88-.51-17.49-8.96-26.4-21.77-26.4-38.41l8.91-11.27c21.45-7.68,39.93-11.52,55.45-11.52.99.77,1.65,1.79,1.65,2.82,0,3.07-4.62,7.43-13.53,13.06l-11.22,36.36c3.3.77,5.61,1.28,7.26,1.28,4.95,0,7.26-2.82,7.26-8.2h8.58v9.22ZM1229.7,365.95c0,7.68,2.31,14.6,6.93,20.74l2.97,1.54c.99,0,.99.26,1.98.26,2.97.26,5.28.26,7.59.26s4.29,0,6.6-.26l-5.28-4.1c-.33,0-.33-.26-.66-.26-.99,0-1.65-.26-1.98-.26l10.89-35.34c-6.6,1.79-13.2,3.84-20.79,6.66l-8.25,10.76Z"/>
    </g>
  </g>
</svg>