<?xml version="1.0" encoding="UTF-8"?>
<svg id="Layer_2" data-name="Layer 2" xmlns="http://www.w3.org/2000/svg" viewBox="0 0 320.55 244.96">
  <defs>
    <style>
      .cls-1 {
        fill: none;
        stroke: #000;
        stroke-linecap: round;
        stroke-linejoin: round;
        stroke-width: 21.95px;
      }
    </style>
  </defs>
  <g id="Layer_1-2" data-name="Layer 1">
    <g>
      <path class="cls-1" d="M152.12,131.77h0c-2.52,7.16-135.01,88.42-139.72,94.19-3.1,4.05-.82,8.03,4.01,8.03,73.08,0,135.02-28.19,204.71-73.47,9.38.54-2.87-.19,1.24-.19,48.17,0,87.23-32.55,87.23-74.11,0-41.54-39.06-75.25-87.23-75.25-19.8,0-38.06,5.69-52.7,15.29-26.01,17.04-37.53,49.33-29.09,79.26l1.27,4.52c2.19,7.77,5.66,15.11,10.29,21.72Z"/>
      <path class="cls-1" d="M178.76,107.02c24.23,24.23,63,24.23,87.23,0"/>
    </g>
  </g>
</svg>